<svg width="190" height="42" viewBox="0 0 190 42" fill="none" xmlns="http://www.w3.org/2000/svg">
<path d="M8.88672 19.8542L11.06 19.1484L14.5353 21.0311L14.1731 22.1895L10.8429 21.3207L8.88672 19.8542Z" fill="#EAFFFE"/>
<path d="M14.9015 23.5017L10.3618 22.3178L6.56042 19.4682L11.1676 17.9717L15.8388 20.5021L14.9015 23.5017Z" fill="#EAFFFE"/>
<path d="M24.2823 19.8542L22.1085 19.1484L18.6332 21.0311L18.9954 22.1895L22.3261 21.3207L24.2823 19.8542Z" fill="#EAFFFE"/>
<path d="M18.2676 23.5017L17.3303 20.5021L22.001 17.9717L26.6086 19.4682L22.8068 22.3178L18.2676 23.5017Z" fill="#EAFFFE"/>
<path fill-rule="evenodd" clip-rule="evenodd" d="M9.71891 32.6176L4.91046 31.0177L5.59627 28.9565L11.7498 31.004L12.487 38.8893L10.3242 39.0915L9.71891 32.6176Z" fill="#EAFFFE"/>
<path fill-rule="evenodd" clip-rule="evenodd" d="M27.6043 28.9565L28.2901 31.0177L23.4821 32.6176L22.8764 39.0916L20.7135 38.8892L21.4513 31.004L27.6043 28.9565Z" fill="#EAFFFE"/>
<path d="M17.1327 41.116H13.657L5.4925 38.0819L4.69671 33.1701L1.62709 24.3714V19.0119L0 16.3675L1.22445 0H5.95367L6.36632 6.74896L9.8891 3.49677L16.8841 2.07676L17.3818 4.52765L11.072 5.80861L4.19103 12.1599L3.60131 2.50091H3.54529L2.55443 15.7462L4.128 18.3037V23.9477L7.1306 32.5539L7.72831 36.2447L14.1066 38.6151H17.1327V41.116Z" fill="#EAFFFE"/>
<path d="M19.8628 41.116H16.3865V38.6151H19.4131L25.7915 36.2447L26.3892 32.5539L26.4252 32.4498L29.3913 23.9477V18.3037L30.9653 15.7462L29.9745 2.50091H29.9185L29.3287 12.1599L22.4477 5.80861L16.1379 4.52765L16.6356 2.07676L23.6307 3.49677L27.1534 6.74896L27.5656 0H32.2948L33.5198 16.3675L31.8922 19.0119V24.3714L28.8226 33.1701L28.0273 38.0819L19.8628 41.116Z" fill="#EAFFFE"/>
<path d="M56.6578 12.6638H47.7767V15.1924H56.0616C57.9941 15.1924 59.022 15.8914 59.022 17.4949C59.022 19.0779 57.9941 19.8591 56.0616 19.8591H47.7767V27.0544H51.1071V22.3672H56.2672C60.2349 22.3672 62.414 20.7636 62.414 17.4949C62.414 14.5962 60.5844 12.6638 56.6578 12.6638Z" fill="#EAFFFE"/>
<path d="M78.5011 23.8679C78.5011 21.8327 77.9666 20.8253 76.2397 20.3525C77.576 19.9208 78.8712 18.8517 78.8712 16.7343C78.8712 13.8767 76.7537 12.6638 72.9505 12.6638H64.0489V27.0544H67.3587V21.6476H72.1898C74.5129 21.6476 75.1913 22.4288 75.1913 24.1351C75.1913 25.7798 75.1913 26.3554 75.6436 27.0544H79.344C78.9123 26.6021 78.5011 25.677 78.5011 23.8679ZM72.971 19.2218H67.3587V15.1924H72.8271C74.7801 15.1924 75.4791 15.8914 75.4791 17.0838C75.4791 18.2144 74.924 19.2218 72.971 19.2218Z" fill="#EAFFFE"/>
<path d="M80.7827 12.6638V27.0544H84.0926V12.6638H80.7827Z" fill="#EAFFFE"/>
<path d="M101.007 12.6638L96.2584 22.3055L91.5301 12.6638H86.555V27.0544H89.8649V15.2747L94.7782 25.1014H97.7386L102.652 15.2747V27.0544H105.982V12.6638H101.007Z" fill="#EAFFFE"/>
<path d="M116.219 12.376C112.067 12.376 107.626 14.3701 107.626 19.8591C107.626 25.3686 112.067 27.3627 116.219 27.3627C120.372 27.3627 124.792 25.3686 124.792 19.8591C124.792 14.3701 120.372 12.376 116.219 12.376ZM116.219 24.8547C112.642 24.8547 111.018 22.6961 111.018 19.8591C111.018 17.0426 112.642 14.8841 116.219 14.8841C119.796 14.8841 121.421 17.0426 121.421 19.8591C121.421 22.6961 119.796 24.8547 116.219 24.8547Z" fill="#EAFFFE"/>
<path d="M138.7 19.5096V19.4274C140.263 18.9545 141.105 18.05 141.105 16.3437C141.105 13.4656 138.988 12.6638 135.534 12.6638H126.427V15.1924H135.699C137.014 15.1924 137.919 15.6447 137.919 16.8782C137.919 18.1117 137.117 18.5845 135.699 18.5845H126.427V27.0544H135.103C139.584 27.0544 141.661 26.0676 141.661 22.7989C141.661 20.9487 140.592 19.9619 138.7 19.5096ZM135.781 24.5052H129.757V20.9487H135.781C137.384 20.9487 138.268 21.3393 138.268 22.5727C138.268 23.7651 137.672 24.5052 135.781 24.5052Z" fill="#EAFFFE"/>
<path d="M151.072 12.376C146.92 12.376 142.479 14.3701 142.479 19.8591C142.479 25.3686 146.92 27.3627 151.072 27.3627C155.225 27.3627 159.645 25.3686 159.645 19.8591C159.645 14.3701 155.225 12.376 151.072 12.376ZM151.072 24.8547C147.495 24.8547 145.871 22.6961 145.871 19.8591C145.871 17.0426 147.495 14.8841 151.072 14.8841C154.65 14.8841 156.274 17.0426 156.274 19.8591C156.274 22.6961 154.65 24.8547 151.072 24.8547Z" fill="#EAFFFE"/>
<path d="M174.041 12.6638H159.835V15.213H165.283V27.0544H168.593V15.213H174.041V12.6638Z" fill="#EAFFFE"/>
<path d="M183.009 18.4817C180.48 18.1322 178.095 18.05 178.095 16.6932C178.095 15.7064 178.794 14.9046 181.755 14.9046C184.407 14.9046 185.599 15.8297 185.722 16.8576H188.929C188.847 14.3084 186.874 12.376 181.796 12.376C176.512 12.376 174.909 14.5551 174.909 16.9193C174.909 19.1807 176.142 20.373 180.069 21.0309C183.995 21.6887 186.216 21.5448 186.216 23.025C186.216 24.1146 185.064 24.8341 182.33 24.8341C179.719 24.8341 177.992 24.0735 177.91 22.5727H174.456C174.456 25.492 177.067 27.3627 182.042 27.3627C187.161 27.3627 189.731 25.6976 189.731 22.5727C189.731 19.3657 186.976 19.0368 183.009 18.4817Z" fill="#EAFFFE"/>
</svg>
