<svg width="17" height="17" viewBox="0 0 17 17" fill="none" xmlns="http://www.w3.org/2000/svg">
<path fill-rule="evenodd" clip-rule="evenodd" d="M4.90183 0.548C5.75492 0.508727 6.02692 0.5 8.20001 0.5C10.3731 0.5 10.6451 0.509455 11.4975 0.548C12.3498 0.586545 12.9316 0.722545 13.4407 0.919636C13.9738 1.12109 14.4575 1.436 14.8575 1.84327C15.2647 2.24255 15.5789 2.72545 15.7796 3.25927C15.9775 3.76836 16.1127 4.35018 16.152 5.20109C16.1913 6.05564 16.2 6.32764 16.2 8.5C16.2 10.6731 16.1906 10.9451 16.152 11.7982C16.1135 12.6491 15.9775 13.2309 15.7796 13.74C15.5789 14.2739 15.2642 14.7576 14.8575 15.1575C14.4575 15.5647 13.9738 15.8789 13.4407 16.0796C12.9316 16.2775 12.3498 16.4127 11.4989 16.452C10.6451 16.4913 10.3731 16.5 8.20001 16.5C6.02692 16.5 5.75492 16.4905 4.90183 16.452C4.05092 16.4135 3.4691 16.2775 2.96001 16.0796C2.42614 15.8789 1.94243 15.5642 1.54256 15.1575C1.13556 14.7579 0.820605 14.2745 0.619649 13.7407C0.422558 13.2316 0.287285 12.6498 0.248012 11.7989C0.208739 10.9444 0.200012 10.6724 0.200012 8.5C0.200012 6.32691 0.209467 6.05491 0.248012 5.20255C0.286558 4.35018 0.422558 3.76836 0.619649 3.25927C0.820902 2.72551 1.1361 2.24205 1.54328 1.84255C1.94259 1.43564 2.42581 1.12069 2.95929 0.919636C3.46838 0.722545 4.05019 0.587273 4.9011 0.548H4.90183ZM11.4327 1.988C10.5891 1.94945 10.336 1.94145 8.20001 1.94145C6.06401 1.94145 5.81092 1.94945 4.96729 1.988C4.18692 2.02364 3.76365 2.15382 3.48147 2.26364C3.10838 2.40909 2.84147 2.58145 2.56147 2.86145C2.29605 3.11967 2.09178 3.43402 1.96365 3.78145C1.85383 4.06364 1.72365 4.48691 1.68801 5.26727C1.64947 6.11091 1.64147 6.364 1.64147 8.5C1.64147 10.636 1.64947 10.8891 1.68801 11.7327C1.72365 12.5131 1.85383 12.9364 1.96365 13.2185C2.09165 13.5655 2.29601 13.8804 2.56147 14.1385C2.81965 14.404 3.13456 14.6084 3.48147 14.7364C3.76365 14.8462 4.18692 14.9764 4.96729 15.012C5.81092 15.0505 6.06329 15.0585 8.20001 15.0585C10.3367 15.0585 10.5891 15.0505 11.4327 15.012C12.2131 14.9764 12.6364 14.8462 12.9186 14.7364C13.2916 14.5909 13.5586 14.4185 13.8386 14.1385C14.104 13.8804 14.3084 13.5655 14.4364 13.2185C14.5462 12.9364 14.6764 12.5131 14.712 11.7327C14.7506 10.8891 14.7586 10.636 14.7586 8.5C14.7586 6.364 14.7506 6.11091 14.712 5.26727C14.6764 4.48691 14.5462 4.06364 14.4364 3.78145C14.2909 3.40836 14.1186 3.14145 13.8386 2.86145C13.5803 2.59605 13.266 2.39179 12.9186 2.26364C12.6364 2.15382 12.2131 2.02364 11.4327 1.988ZM7.17819 10.9662C7.74886 11.2037 8.38429 11.2358 8.97596 11.0569C9.56763 10.878 10.0788 10.4992 10.4223 9.98527C10.7657 9.47132 10.9201 8.85409 10.859 8.23899C10.7979 7.62388 10.5251 7.04907 10.0873 6.61273C9.80818 6.3338 9.47071 6.12023 9.09916 5.98738C8.72762 5.85453 8.33123 5.80572 7.93855 5.84445C7.54588 5.88318 7.16667 6.00849 6.82823 6.21137C6.4898 6.41424 6.20055 6.68963 5.98132 7.01771C5.76209 7.34579 5.61833 7.71839 5.56039 8.1087C5.50244 8.49901 5.53176 8.8973 5.64622 9.27492C5.76069 9.65254 5.95745 10.0001 6.22235 10.2925C6.48726 10.585 6.8137 10.815 7.17819 10.9662ZM5.29238 5.59236C5.67421 5.21053 6.12752 4.90764 6.62641 4.70099C7.1253 4.49434 7.66001 4.38798 8.20001 4.38798C8.74001 4.38798 9.27472 4.49434 9.77361 4.70099C10.2725 4.90764 10.7258 5.21053 11.1076 5.59236C11.4895 5.9742 11.7924 6.42751 11.999 6.9264C12.2057 7.42529 12.312 7.96 12.312 8.5C12.312 9.04 12.2057 9.57471 11.999 10.0736C11.7924 10.5725 11.4895 11.0258 11.1076 11.4076C10.3365 12.1788 9.29059 12.612 8.20001 12.612C7.10944 12.612 6.06353 12.1788 5.29238 11.4076C4.52122 10.6365 4.08799 9.59058 4.08799 8.5C4.08799 7.40942 4.52122 6.36352 5.29238 5.59236ZM13.224 5.00036C13.3186 4.91111 13.3944 4.80377 13.4468 4.68471C13.4992 4.56565 13.5271 4.43729 13.529 4.30722C13.5309 4.17716 13.5067 4.04803 13.4578 3.9275C13.4089 3.80696 13.3363 3.69746 13.2443 3.60548C13.1524 3.5135 13.0429 3.44091 12.9223 3.39201C12.8018 3.34311 12.6727 3.31889 12.5426 3.32079C12.4125 3.32268 12.2842 3.35066 12.1651 3.40305C12.0461 3.45545 11.9387 3.5312 11.8495 3.62582C11.6759 3.80984 11.5808 4.05427 11.5845 4.30722C11.5882 4.56017 11.6903 4.80173 11.8692 4.98061C12.0481 5.1595 12.2897 5.26162 12.5426 5.26531C12.7956 5.269 13.04 5.17396 13.224 5.00036Z" fill="#EAFFFE"/>
</svg>
