<svg width="20" height="17" viewBox="0 0 20 17" fill="none" xmlns="http://www.w3.org/2000/svg">
<path d="M19.2 2.39789C18.4939 2.71861 17.7354 2.93531 16.938 3.03326C17.7608 2.5286 18.3763 1.73432 18.6698 0.798631C17.8968 1.2693 17.0508 1.6006 16.1686 1.77812C15.5753 1.12877 14.7894 0.698364 13.9331 0.553736C13.0767 0.409107 12.1977 0.558345 11.4326 0.97828C10.6675 1.39821 10.059 2.06535 9.7016 2.87611C9.34424 3.68688 9.25799 4.5959 9.45625 5.46206C7.88995 5.38144 6.35769 4.96412 4.95891 4.23718C3.56013 3.51023 2.32609 2.48991 1.33688 1.24244C0.998643 1.84053 0.804157 2.53398 0.804157 3.2725C0.80378 3.93734 0.963494 4.59199 1.26913 5.17838C1.57477 5.76477 2.01687 6.26476 2.55622 6.63398C1.93072 6.61358 1.31902 6.44032 0.772025 6.12863V6.18064C0.771962 7.1131 1.08661 8.01687 1.66259 8.73859C2.23856 9.46031 3.04038 9.95553 3.932 10.1402C3.35174 10.3012 2.74338 10.3249 2.15288 10.2096C2.40444 11.0119 2.89446 11.7135 3.55433 12.2162C4.21421 12.7188 5.0109 12.9974 5.83289 13.0128C4.43752 14.1357 2.71425 14.7448 0.940298 14.7421C0.62606 14.7422 0.312088 14.7234 0 14.6858C1.80067 15.8726 3.89677 16.5024 6.03752 16.5C13.2842 16.5 17.2458 10.3474 17.2458 5.01132C17.2458 4.83796 17.2416 4.66286 17.234 4.4895C18.0046 3.91825 18.6697 3.21087 19.1983 2.40049L19.2 2.39789Z" fill="#EAFFFE"/>
</svg>
