<svg width="16" height="17" viewBox="0 0 16 17" fill="none" xmlns="http://www.w3.org/2000/svg">
<path d="M8 0.5C3.58267 0.5 0 4.08267 0 8.5C0 12.9173 3.58267 16.5 8 16.5C12.4173 16.5 16 12.9173 16 8.5C16 4.08267 12.4193 0.5 8 0.5ZM3.94667 8.76867L3.98067 8.71467L6.06267 5.45867C6.06964 5.44796 6.07936 5.43933 6.09081 5.43367C6.10226 5.428 6.11502 5.42552 6.12776 5.42647C6.1405 5.42743 6.15275 5.43178 6.16323 5.43909C6.17371 5.44639 6.18203 5.45638 6.18733 5.468C6.534 6.24733 6.83533 7.21667 6.694 7.82C6.63533 8.068 6.47067 8.404 6.28467 8.71467C6.26081 8.76011 6.23478 8.80439 6.20667 8.84733C6.19993 8.85691 6.19093 8.86467 6.18045 8.86991C6.16998 8.87514 6.15837 8.8777 6.14667 8.87733H4.00867C3.99591 8.87753 3.98333 8.87427 3.97227 8.86789C3.96122 8.86152 3.95209 8.85227 3.94587 8.84112C3.93965 8.82998 3.93656 8.81736 3.93694 8.8046C3.93731 8.79184 3.94114 8.77943 3.948 8.76867H3.94667ZM13.2227 9.88867C13.2228 9.9029 13.2188 9.91687 13.2111 9.92884C13.2034 9.94081 13.1924 9.95026 13.1793 9.956C13.0173 10.0247 12.466 10.2793 12.2367 10.5973C11.6513 11.412 11.2047 12.5773 10.2047 12.5773H6.03533C5.68331 12.5768 5.33484 12.5069 5.00984 12.3717C4.68484 12.2364 4.38968 12.0384 4.14122 11.789C3.89277 11.5397 3.69589 11.2438 3.56185 10.9183C3.4278 10.5928 3.35921 10.244 3.36 9.892V9.844C3.36 9.80533 3.392 9.77333 3.432 9.77333H5.75533C5.802 9.77333 5.83533 9.81533 5.832 9.86133C5.81467 10.012 5.84333 10.1673 5.91533 10.308C6.05267 10.588 6.33933 10.7627 6.648 10.7627H7.79867V9.86467H6.66C6.64666 9.86452 6.63361 9.86075 6.62225 9.85374C6.6109 9.84673 6.60167 9.83675 6.59557 9.82489C6.58946 9.81302 6.58671 9.79971 6.58761 9.7864C6.58851 9.77309 6.59302 9.76027 6.60067 9.74933L6.64267 9.68933C6.74933 9.53533 6.90333 9.29867 7.05667 9.028C7.16067 8.84533 7.262 8.65067 7.34333 8.45467C7.35933 8.42 7.372 8.38333 7.38667 8.348C7.40867 8.28533 7.43133 8.22667 7.44733 8.16867C7.46304 8.11949 7.47748 8.06991 7.49067 8.02C7.52867 7.85333 7.54467 7.67733 7.54467 7.49533C7.54467 7.42333 7.542 7.348 7.53533 7.27733C7.532 7.19933 7.522 7.12067 7.51267 7.04267C7.50521 6.97288 7.49453 6.90347 7.48067 6.83467C7.46273 6.7299 7.44093 6.62583 7.41533 6.52267L7.406 6.48267C7.386 6.41067 7.36867 6.34267 7.346 6.27133C7.28252 6.05227 7.20956 5.83607 7.12733 5.62333C7.09868 5.54331 7.06711 5.46437 7.03267 5.38667C6.98467 5.268 6.93533 5.16067 6.89067 5.06C6.86844 5.01687 6.84754 4.97307 6.828 4.92867C6.80632 4.88076 6.78342 4.83341 6.75933 4.78667C6.74333 4.75133 6.724 4.71733 6.71133 4.68533L6.57067 4.42667C6.55133 4.39133 6.58333 4.348 6.622 4.35933L7.502 4.59733H7.50867L7.624 4.63067L7.752 4.66667L7.79867 4.67933V4.15733C7.79867 3.90467 8 3.7 8.25133 3.7C8.31068 3.69984 8.36945 3.71169 8.4241 3.73483C8.47875 3.75797 8.52815 3.79193 8.56933 3.83467C8.65445 3.92052 8.70235 4.03644 8.70267 4.15733V4.93333L8.79667 4.95933C8.80333 4.96267 8.81133 4.966 8.81733 4.97067C8.84 4.98667 8.87333 5.012 8.91533 5.044C8.94867 5.06933 8.984 5.10133 9.02533 5.13533C9.15698 5.24259 9.28462 5.35466 9.408 5.47133C9.55067 5.604 9.71067 5.75933 9.864 5.932C9.90733 5.98133 9.94867 6.02933 9.992 6.08267C10.0333 6.13533 10.08 6.18667 10.1187 6.23733C10.1713 6.30667 10.2253 6.37867 10.2753 6.45333C10.2973 6.48867 10.3247 6.52533 10.3453 6.56067C10.4093 6.65533 10.464 6.75267 10.5167 6.85067C10.5393 6.89533 10.5613 6.94467 10.5807 6.99267C10.64 7.124 10.6867 7.25667 10.7153 7.39133C10.7248 7.41992 10.7313 7.44941 10.7347 7.47933V7.486C10.744 7.524 10.7473 7.566 10.7507 7.60867C10.7694 7.80571 10.7453 8.00449 10.68 8.19133C10.6593 8.24733 10.64 8.30467 10.6147 8.36067C10.5647 8.474 10.5073 8.58933 10.4387 8.69533C10.416 8.73533 10.3887 8.77667 10.3633 8.81667C10.3347 8.85867 10.304 8.89867 10.2787 8.93667C10.242 8.98715 10.2035 9.03629 10.1633 9.084C10.128 9.132 10.0927 9.18 10.0527 9.22333C9.99867 9.28867 9.946 9.35 9.88933 9.40867C9.85733 9.44733 9.82267 9.48733 9.78533 9.522C9.75067 9.562 9.71333 9.59733 9.68133 9.62933C9.62533 9.68533 9.58133 9.72733 9.54267 9.764L9.45133 9.84533C9.43861 9.8581 9.42135 9.86529 9.40333 9.86533H8.70267V10.7627H9.584C9.78067 10.7627 9.968 10.6933 10.12 10.564C10.1713 10.5193 10.3967 10.324 10.664 10.0293C10.6727 10.0193 10.6844 10.0123 10.6973 10.0093L13.1307 9.30467C13.1414 9.30158 13.1526 9.301 13.1635 9.30299C13.1745 9.30498 13.1848 9.30948 13.1937 9.31613C13.2026 9.32278 13.2099 9.33141 13.2149 9.34134C13.2199 9.35126 13.2226 9.36221 13.2227 9.37333V9.88867Z" fill="#EAFFFE"/>
</svg>
